Patient4_TMGait_0pt4_03_right_05_EMG.mot
version=1
nRows=40
nColumns=33
inDegrees=no
endheader
time	1LAddLong	2LGlutMax	3LGlutMed	4LIliopsoas	5LSemiMemb	6LBicFemLong	7LRecFem	8LVastMed	9LVastLat	10LGasMed	11LTibAnt	12lTibPost	13LPeroneusLong	14LSol	15LExtDigLong	16LFlexDigLong	17RAddLong	18RGlutMax	19RGlutMed	20RIliopsoas	21RSemiMemb	22RBicFemLong	23RRecFem	24RVastMed	25RVastLat	26RGasMed	27RTibAnt	28RTibPost	29RPeroneusLong	30RSol	31RExtDigLong	32RFlexDigLong
5.932	-0.000763	-0.13596	-0.0914	0.000305	-0.001678	-0.02182	0.19806	0.003357	0.009918	-0.049133	-0.20477	0.004425	0.020447	0.005951	-0.15625	0.001068	-0.088043	-0.77499	-0.47043	0.17044	-0.030365	-0.15289	0.36484	0.24078	-0.12619	-0.046387	0.048676	-0.021057	1.0689	-0.19257	0	-0.003967
5.933	-0.00473	-0.11185	-0.11414	0.004272	-0.017242	-0.012817	0.19501	0.010071	0.00824	-0.047455	-0.17227	0.005951	0.030823	-0.028534	-0.1181	-0.010681	-0.13077	-0.7016	-0.25375	0.16388	0.027618	-0.16846	0.30136	0.22537	-0.16129	-0.049286	0.010834	-0.024719	0.70877	-0.09964	0.002747	-0.002136
5.934	-0.009766	-0.0914	-0.10849	-0.013733	-0.003967	-0.036621	0.17685	0.013885	-0.001221	-0.048828	-0.097046	0.001831	-0.013428	-0.041504	-0.014343	0.007629	-0.08606	-0.60059	0.19287	0.085907	0.051727	-0.21133	0.24735	0.043182	-0.21194	-0.085297	0.11108	-0.003967	-0.047607	0.037384	-0.001068	-0.007935
5.935	-0.002289	-0.078735	-0.097656	-0.001373	0.001373	-0.018005	0.21561	0.00885	-0.016022	-0.050507	-0.10025	0.011139	-0.043335	-0.04715	-0.002594	0.019379	-0.06012	-0.54428	0.41168	-0.052795	0.046082	-0.13001	0.16129	0.015717	-0.28015	-0.033875	0.15717	0.002594	-0.24017	-0.10956	-0.000916	-0.006866
5.936	-0.003357	-0.11749	-0.068054	-0.009613	-0.009308	-0.033417	0.14664	0.016785	-0.005493	-0.029297	-0.052795	0.010834	-0.055389	-0.049286	0.002136	0.030212	-0.059814	-0.54169	0.23102	-0.081177	0.1831	-0.10803	0.063171	0.12268	-0.10986	0.008698	-0.00473	-0.004578	-0.32684	-0.11093	0.001221	-0.002289
5.937	-0.004272	-0.06485	-0.073242	-0.025482	0.00473	-0.035706	0.034485	0.016937	-0.018311	-0.037231	-0.044556	0.009155	-0.068054	-0.043793	0.028839	0.033875	-0.020599	-0.52628	0.35675	-0.055847	0.16296	-0.11597	0.14786	0.051422	-0.023651	0.004883	-0.18951	-0.005035	-0.10834	-0.066986	-0.000458	-0.000305
5.938	-0.005341	-0.051422	-0.037537	-0.012207	-0.005646	-0.038452	0.063629	0.011902	-0.006714	-0.049744	0.008392	0.010071	-0.065613	-0.042114	0.063324	0.034943	-0.000305	-0.53085	0.16266	-0.095215	-0.072784	-0.18097	0.20447	-0.018768	-0.055542	-0.004883	-0.036774	0.004425	-0.31448	0.12695	0	-0.00061
5.939	0.001678	-0.10605	-0.043793	0.001526	0.006714	-0.030518	0.099945	0.013123	0.019379	-0.049438	0.063324	0.016785	-0.059052	-0.015259	0.094757	0.015564	0.01358	-0.50095	0.06546	-0.088806	-0.00824	-0.1622	0.17929	0.09552	-0.002136	0.002594	-0.018768	-0.013123	0.089569	0.20401	0.000305	-0.009308
5.94	-0.006409	-0.10407	-0.037231	0.014801	-0.004578	-0.009918	0.26535	0.006714	0.021057	-0.054932	0.022888	0.013275	-0.035553	-0.01709	0.06546	-0.007324	-0.001068	-0.42358	-0.43594	0.016937	0.062408	-0.10849	0.2623	0.14801	-0.059052	0.037079	0.009918	-0.043335	1.2288	0.17212	0.002289	-0.010681
5.941	-0.006561	-0.098572	-0.034943	0.028687	-0.001526	-0.019531	0.36713	0.002136	0.045319	-0.05188	-0.068359	0.005951	-0.033569	-0.023651	-0.006256	0.00824	-0.015259	-0.38742	-0.63828	0.039063	0.12817	-0.11734	0.26443	0.08728	-0.052338	0.032501	0.11566	-0.052948	0.69122	0.14603	0.001068	-0.011749
5.942	0.002289	-0.11658	-0.021515	0.032806	0.005035	-0.045013	0.36011	0.00824	0.028839	-0.05127	-0.033722	0.009918	-0.045624	-0.023499	0.008392	0.010376	0.009155	-0.46906	-0.45868	0.045166	0.13031	0.029297	0.30319	0.048676	-0.061035	0.011444	0.12344	0.11292	-0.4393	-0.005951	0.000305	-0.011292
5.943	-0.001373	-0.093231	-0.009613	0.055542	-0.003204	-0.028229	0.31677	0.009308	0.022736	-0.036774	-0.018311	0.01297	-0.044556	-0.008545	0.028992	-0.012512	-0.006866	-0.56274	-0.12787	-0.034943	0.029755	0.29572	0.34958	0.080566	-0.052948	0.018158	0.11459	0.073395	-0.014038	-0.099335	-0.00061	-0.005035
5.944	0.002136	-0.097198	-0.011749	0.001984	0.003967	-0.021667	0.23544	0.003662	0.013275	-0.035858	-0.002899	0.013275	-0.054474	-0.004272	0.040588	-0.007477	-0.013428	-0.64255	0.44784	-0.082397	-0.060272	0.17258	0.38727	0.011902	-0.077057	0.018768	0.077972	0.003662	0.80048	0.002899	0.000153	-0.003204
5.945	0.000305	-0.15427	-0.0354	-0.042419	-0.000458	-0.007629	0.2066	-0.000458	0.024872	-0.039978	-0.001373	0.010071	-0.041962	0.001984	0.021362	-0.019379	0.016174	-0.71198	0.16266	-0.10208	-0.012665	0.18463	0.29785	-0.054321	-0.13489	0.005341	-0.002594	-0.006256	-0.53192	-0.22675	-0.001221	0.013428
5.946	-0.001221	-0.16861	-0.042572	-0.033112	0.005798	-0.041199	0.21362	0.001678	0.033264	-0.041504	-0.003967	0.012665	-0.04715	-0.010834	0.015717	-0.004578	0.005951	-0.69488	-0.015106	-0.13336	-0.079041	0.25513	0.37949	-0.080109	-0.14282	-0.029907	0.013123	-0.013123	-0.41855	-0.16541	0.000763	-0.01297
5.947	0.001984	-0.22308	-0.047302	-0.010376	0.005646	-0.028839	0.1326	0.010376	0.040741	-0.047302	0.016785	0.014496	-0.055695	-0.02121	0.012054	-0.014496	-0.040436	-0.83267	-0.37231	-0.054626	-0.18631	0.15488	0.4129	0.050659	-0.12833	-0.024567	0.10666	-0.01709	-0.61066	-0.11566	0.010376	-0.009155
5.948	0.002441	-0.25146	-0.011444	0.002441	0.004425	-0.027771	0.059052	0.005493	0.053558	-0.045776	0.004425	0.011139	-0.058289	-0.02655	0.018768	-0.015106	-0.008545	-1.0429	-0.64728	0.097656	-0.039825	-0.074921	0.40344	0.080719	-0.11246	-0.026855	0.065765	-0.010681	-0.46295	-0.038605	0.00061	-0.019989
5.949	0.000305	-0.25742	-0.011749	-0.005188	0.010071	-0.013885	-0.12177	0.012512	0.05661	-0.040894	0.012817	0.012665	-0.051422	-0.011139	0.028687	-0.008698	0.042267	-1.1276	-0.68619	0.072479	0.068207	-0.20493	0.25467	0.16388	0.084991	-0.026703	0.023499	-0.006866	-0.46005	0.10559	-0.00061	-0.023193
5.95	-0.007629	-0.27878	0.010223	-0.011139	0.00885	-0.020447	-0.18051	0.007935	0.051422	-0.041809	0.020599	0.003662	-0.039673	-0.020752	0.019989	-0.022736	0.023041	-1.127	-0.51804	0.073395	0.014648	-0.16007	0.32883	0.18127	0.027008	-0.017853	-0.016327	0.001831	-0.010834	0.036469	0.003357	-0.016327
5.951	0.001984	-0.31662	-0.001221	-0.008698	0.007172	-0.015106	-0.13412	0.003204	0.065155	-0.034485	0.012207	-0.001068	-0.036926	-0.030212	0.011292	-0.027924	0.018616	-1.0883	-0.25497	0.16556	-0.37018	-0.030823	0.38116	0.15076	-0.085907	0.079956	-0.03067	-0.005798	-0.30502	-0.027924	0.002441	-0.0177
5.952	0.003815	-0.34256	0.007477	-0.013428	0.001526	-0.01236	-0.030365	-0.012054	0.084076	-0.006256	0.005493	0.002899	-0.046844	-0.018768	-0.000305	-0.006256	-0.027313	-1.116	-0.345	0.18402	-0.34637	0.11871	0.28305	0.093231	-0.071106	-0.010223	0.002747	-0.008545	-0.92194	0.046387	0.00061	-0.023804
5.953	-0.004578	-0.35858	0.013123	-0.005646	0.003967	-0.00412	0.04364	-0.007324	0.093536	0.02594	0.025787	0.004425	-0.058136	-0.016327	-0.002594	-0.007629	-0.063171	-1.2605	-0.71304	0.16296	-0.14633	0.26657	0.13825	0.016022	-0.1207	-0.11871	-0.016632	-0.006714	-0.1178	0.11795	-0.001831	-0.019836
5.954	0.000763	-0.37277	0.027466	-0.018158	0.002899	-0.009918	-0.028992	0.006256	0.075989	0.034332	0.030823	0.004425	-0.060425	-0.002136	-0.003662	-0.015106	-0.082092	-1.2988	-0.89935	0.094757	-0.23239	0.19852	0.12421	0.11368	-0.13062	-0.055389	0.029907	-0.017548	0.54916	0.14542	-0.001526	-0.027466
5.955	-0.00412	-0.43213	0.041046	-0.024414	0.00473	-0.014496	-0.088654	0.046844	0.065155	0.041351	0.044861	0.001678	-0.044556	0.003357	-0.003357	-0.028381	-0.042725	-1.366	-0.15915	0.071716	0.062866	-0.062866	0.24567	0.14603	-0.13062	-0.055389	0.10651	-0.024719	0.69183	0.12528	0	-0.030975
5.956	0.053864	-0.4155	-0.002594	-0.002747	0.005951	0.004425	-0.000458	0.002441	0.076599	0.053864	0.052185	0.008545	-0.058899	-0.003204	0.008392	-0.008392	-0.007324	-1.5337	0.82748	0.009918	0.039063	0.045166	0.31998	0.12528	-0.1001	-0.10574	0.11185	-0.044861	0.36789	0.087738	-0.001221	-0.022125
5.957	-0.050354	-0.41794	-0.01358	-0.010681	0.007477	0.001984	0.1413	0.014038	0.076447	-0.074615	0.033264	-0.001068	-0.05127	0.004883	0.032349	-0.024109	-0.012207	-1.6943	0.74722	-0.018768	-0.12299	0.11734	0.31708	0.24582	0.06012	-0.032806	0.17059	-0.006256	-0.46402	0.13626	0.000916	-0.031281
5.958	-0.005035	-0.44601	0.04425	-0.003662	0.003204	0.000458	0.19333	0.010376	0.067139	-0.11963	0.012665	0.001526	-0.044556	-0.002747	0.039673	-0.019531	-0.032806	-1.7601	0.48828	-0.029755	-0.1152	0.029907	0.19424	0.1442	0.37476	0.025482	0.23224	0.05661	-0.41077	0.086365	0.001221	-0.022888
5.959	0.014038	-0.42984	0.007019	0.01709	0.007782	-0.023651	0.25772	0.003662	0.070496	-0.039215	-0.006409	0.003815	-0.038757	0.002136	0.016327	-0.00351	-0.038757	-1.6748	-0.25131	-0.019836	0.055237	0.20081	-0.058289	0.067139	0.42007	0.011902	0.25543	-0.014343	0.2829	-0.084229	0.000305	-0.026703
5.96	-0.002136	-0.43442	-0.055695	-0.00061	0.004883	-0.000763	0.28976	-0.001678	0.077515	-0.031128	-0.0383	-0.001068	-0.035858	0.022736	-0.011292	0.001373	-0.010529	-1.6104	0.26962	-0.03891	0.3537	0.17197	-0.354	0.067596	0.44907	0.026093	0.11749	-0.046387	1.5593	-0.22247	0.008698	-0.027618
5.961	0.006866	-0.44876	-0.054169	-0.018463	0.005646	-0.016327	0.25589	0.004883	0.079041	-0.015411	-0.028534	-0.005188	-0.02533	-0.013885	-0.084229	-0.020599	0.051727	-1.642	0.14633	-0.10544	0.25711	-0.011902	-0.22278	-0.053711	0.39398	0.024872	-0.18082	-0.036316	2.1431	-0.17716	-0.00061	-0.014648
5.962	0.004425	-0.44449	-0.056763	-0.01709	0.012817	-0.014343	0.23712	-0.005341	0.10361	-0.008087	-0.015869	0.006256	-0.041199	-0.008087	-0.027924	-0.002594	0.093536	-1.7851	-0.77728	-0.11948	0	-0.095215	-0.16159	-0.16907	0.23834	-0.005646	-0.04776	-0.00473	1.0306	-0.068054	-0.00061	-0.01297
5.963	0.010986	-0.46646	-0.044708	-0.019684	0.000916	-0.009613	0.22171	-0.00351	0.10651	-0.002289	-0.019684	0.005493	-0.040588	0.00946	0.00946	-0.005951	0.083313	-1.7038	-0.9874	-0.16083	-0.20187	-0.13825	-0.064697	-0.19867	-0.18051	0.022888	0.059204	0.054169	-2.0348	0.14008	-0.002289	-0.021362
5.964	0.008392	-0.45578	-0.03479	-0.007172	-0.001373	-0.002136	0.19806	0.006409	0.094452	-0.003662	-0.005341	-0.003662	-0.035248	0.011292	0.002136	0.002289	-0.002136	-1.7088	-0.86838	-0.17075	-0.37308	-0.14893	-0.045319	-0.10239	-0.53772	0.011597	0.13886	-0.02243	-2.944	0.24353	0.001373	-0.021362
5.965	0.015259	-0.46753	-0.049896	0.003204	0.003662	0.005035	0.24185	0.003357	0.096741	0.007477	0.010681	0.008087	-0.029755	0.031738	-0.00946	-0.010376	-0.080872	-1.707	-0.76523	0.077209	-0.14572	-0.25238	-0.177	0.010834	-0.634	-0.002441	0.094147	-0.018921	-1.216	0.14236	-0.001678	-0.023041
5.966	0.004883	-0.47089	-0.052032	0.015411	0.003052	-0.001221	0.33356	0.014496	0.089722	0.015869	0.03006	0.003357	-0.037689	0.027771	-0.015259	0.005035	-0.06897	-1.666	-0.64255	0.21164	0.22964	-0.21393	-0.1001	0.15228	-0.40573	0.013885	-0.036011	0.001068	0.27176	0.014801	0.004272	-0.027466
5.967	0.005798	-0.45517	-0.040741	0.011597	0.005951	-0.004578	0.29175	0.024109	0.08667	0.020447	0.046844	0.005188	-0.032501	0.037384	0.016937	-0.001678	-0.03952	-1.6371	-0.6015	0.15274	0.26184	-0.18341	0.082703	0.13428	-0.33524	0.018616	0.001068	0.002747	1.7561	0.099487	0.002136	-0.03067
5.968	0.005035	-0.439	-0.030212	-0.02243	0.000153	-0.001068	0.16693	0.014801	0.099182	0.019379	0.035095	0.001221	-0.032501	0.053711	0.019379	0.010986	-0.036011	-1.4439	-0.33936	0.095367	0.20187	-0.081482	0.16235	0.16434	-0.22339	0.014343	-0.13748	-0.011749	1.2106	-0.1329	-0.001221	-0.029297
5.969	0.01358	-0.45517	-0.009613	-0.038757	0.005493	-0.007172	0.15335	0.015259	0.070496	0.010681	-0.057373	0.007782	-0.027008	0.051575	0.025635	0.004883	-0.012512	-1.2845	0.055389	0.008087	0.089417	0.03006	-0.015564	0.14252	-0.064697	0.016632	0.023956	-0.000763	-0.86853	-0.24551	-0.002441	-0.025787
5.97	0.008087	-0.4483	-0.005341	-0.013885	0.006104	0.01297	0.1236	0.018311	0.07019	0.022583	-0.091705	0.002594	-0.051422	0.03891	-0.11841	0.001526	-0.005035	-1.1861	0.17395	-0.054016	0.023499	0.055542	-0.003967	0.012054	-0.049438	0.015106	0.21027	-0.002136	0.29053	-0.058899	0.001526	-0.019684
5.971	0.008545	-0.44373	0.007019	0.009308	0.00351	0.003204	-0.015564	0.024719	0.057068	0.017395	-0.089569	0.001678	-0.020752	0.068512	0.017395	0.006866	0.007019	-1.1053	0.044403	-0.099945	-0.001526	0.06897	0.07309	0.009155	-0.03006	0.00824	-0.12863	-0.007935	1.5413	-0.021667	0.001678	-0.014496
